999
FreeCAD v0.19 
  0
SECTION
  2
HEADER
  9
$ACADVER
  1
AC1014
  9
$ACADMAINTVER
 70
     9
  9
$DWGCODEPAGE
  3
ANSI_1252
  9
$TEXTSTYLE
  7
STANDARD
  9
$DIMSTYLE
  2
STANDARD
  9
$DIMTXSTY
  7
STANDARD
  9
$CMLSTYLE
  2
STANDARD
  9
$PEXTMAX
 10
50
 20
50
 30
50
  9
$PEXTMIN
 10
0
 20
0
 30
0
  9
$HANDSEED
  5
FFFF
  0
ENDSEC
  0
SECTION
  2
CLASSES
  0
CLASS
  1
ACDBDICTIONARYWDFLT
  2
AcDbDictionaryWithDefault
  3
ObjectDBX Classes
 90
        0
280
     0
281
     0
  0
CLASS
  1
XRECORD
  2
AcDbXrecord
  3
ObjectDBX Classes
 90
        0
280
     0
281
     0
  0
CLASS
  1
LWPOLYLINE
  2
AcDbPolyline
  3
ObjectDBX Classes
 90
        0
280
     0
281
     1
  0
ENDSEC
  0
SECTION
  2
TABLES
  0
TABLE
  2
VPORT
  5
20
330
0
100
AcDbSymbolTable
 70
     1
  0
VPORT
  5
21
330
20
100
AcDbSymbolTableRecord
100
AcDbViewportTableRecord
  2
*ACTIVE
 70
     0
  0
ENDTAB
  0
TABLE
  2
LTYPE
  5
22
330
0
100
AcDbSymbolTable
 70
     1
  0
LTYPE
  5
23
330
21
100
AcDbSymbolTableRecord
100
AcDbLinetypeTableRecord
  2
BYBLOCK
 70
     0
  3

 72
    65
 73
     0
 40
0.0
  0
LTYPE
  5
24
330
21
100
AcDbSymbolTableRecord
100
AcDbLinetypeTableRecord
  2
BYLAYER
 70
     0
  3

 72
    65
 73
     0
 40
0.0
  0
LTYPE
  5
25
330
21
100
AcDbSymbolTableRecord
100
AcDbLinetypeTableRecord
  2
CONTINUOUS
 70
     0
  3
Solid line
 72
    65
 73
     0
 40
0.0
  0
ENDTAB
  0
TABLE
  2
LAYER
  5
A68
330
0
100
AcDbSymbolTable
 70
5
  0
LAYER
  5
A69
330
A68
100
AcDbSymbolTableRecord
100
AcDbLayerTableRecord
  2
0
 70
   0
 62
   7
  6
CONTINUOUS
  0
LAYER
  5
A6A
330
A68
100
AcDbSymbolTableRecord
100
AcDbLayerTableRecord
  2
ProjItem
 70
    0
 62
    7
  6
CONTINUOUS
  0
LAYER
  5
A6B
330
A68
100
AcDbSymbolTableRecord
100
AcDbLayerTableRecord
  2
Dimension
 70
    0
 62
    7
  6
CONTINUOUS
  0
LAYER
  5
A6C
330
A68
100
AcDbSymbolTableRecord
100
AcDbLayerTableRecord
  2
Dimension001
 70
    0
 62
    7
  6
CONTINUOUS
  0
LAYER
  5
A6D
330
A68
100
AcDbSymbolTableRecord
100
AcDbLayerTableRecord
  2
Dimension002
 70
    0
 62
    7
  6
CONTINUOUS
  0
ENDTAB
  0
TABLE
  2
STYLE
  5
70
330
0
100
AcDbSymbolTable
 70
     2
  0
STYLE
  5
71
330
70
100
AcDbSymbolTableRecord
100
AcDbTextStyleTableRecord
  2
STANDARD
 70
     0
 40
0.0
 41
1.0
 50
0.0
 71
     0
 42
2.5
  3
arial.ttf
  4

  0
STYLE
  5
72
330
70
100
AcDbSymbolTableRecord
100
AcDbTextStyleTableRecord
  2
ANNOTATIVE
 70
     0
 40
0.0
 41
1.0
 50
0.0
 71
     0
 42
2.5
  3
arial.ttf
  4

  0
ENDTAB
  0
TABLE
  2
VIEW
  5
73
330
0
100
AcDbSymbolTable
 70
     0
  0
ENDTAB
  0
TABLE
  2
UCS
  5
74
330
0
100
AcDbSymbolTable
 70
     0
  0
ENDTAB
  0
TABLE
  2
APPID
  5
75
330
0
100
AcDbSymbolTable
 70
     2
  0
APPID
  5
76
330
75
100
AcDbSymbolTableRecord
100
AcDbRegAppTableRecord
  2
ACAD
 70
     0
  0
APPID
  5
77
330
75
100
AcDbSymbolTableRecord
100
AcDbRegAppTableRecord
  2
ACADANNOTATIVE
 70
     0
  0
ENDTAB
  0
TABLE
  2
DIMSTYLE
  5
78
330
0
100
AcDbSymbolTable
 70
     2
  0
DIMSTYLE
105
79
330
78
100
AcDbSymbolTableRecord
100
AcDbDimStyleTableRecord
  2
STANDARD
 70
     0
  3

  4

  5

  6

  7

 40
0.0
 41
2.5
 42
0.625
 43
3.75
 44
1.25
 45
0.0
 46
0.0
 47
0.0
 48
0.0
140
2.5
141
2.5
142
0.0
143
0.03937007874016
144
1.0
145
0.0
146
1.0
147
0.625
 71
     0
 72
     0
 73
     0
 74
     0
 75
     0
 76
     0
 77
     1
 78
     8
170
     0
171
     3
172
     1
173
     0
174
     0
175
     0
176
     0
177
     0
178
     0
270
     2
271
     2
272
     2
273
     2
274
     3
340
71
275
     0
280
     0
281
     0
282
     0
283
     0
284
     8
285
     0
286
     0
287
     3
288
     0
  0
ENDTAB
  0
TABLE
  2
BLOCK_RECORD
  5
A01
330
0
100
AcDbSymbolTable
  70
5
  0
BLOCK_RECORD
  5
A02
330
A01
100
AcDbSymbolTableRecord
100
AcDbBlockTableRecord
  2
*MODEL_SPACE
  0
BLOCK_RECORD
  5
A03
330
A01
100
AcDbSymbolTableRecord
100
AcDbBlockTableRecord
  2
*PAPER_SPACE
  0
BLOCK_RECORD
  5
A4B
330
A01
100
AcDbSymbolTableRecord
100
AcDbBlockTableRecord
  2
*Dimension
  0
BLOCK_RECORD
  5
A55
330
A01
100
AcDbSymbolTableRecord
100
AcDbBlockTableRecord
  2
*Dimension001
  0
BLOCK_RECORD
  5
A5F
330
A01
100
AcDbSymbolTableRecord
100
AcDbBlockTableRecord
  2
*Dimension002
  0
ENDTAB
  0
ENDSEC
  0
SECTION
  2
BLOCKS
  0
BLOCK
  5
A04
330
A02
100
AcDbEntity
  8
0
100
AcDbBlockBegin
  2
*MODEL_SPACE
 70
   0
 10
0
 20
0
 30
0
  3
*MODEL_SPACE
  1
 
  0
ENDBLK
  5
A05
330
A02
100
AcDbEntity
  8
0
100
AcDbBlockEnd
  0
BLOCK
  5
A06
330
A03
100
AcDbEntity
 67
1
  8
0
100
AcDbBlockBegin
  2
*PAPER_SPACE
 70
   0
 10
0
 20
0
 30
0
  3
*PAPER_SPACE
  1
 
  0
ENDBLK
  5
A07
330
A03
100
AcDbEntity
 67
    1
  8
0
100
AcDbBlockEnd
  0
BLOCK
  5
A4C
330
A4B
100
AcDbEntity
  8
Dimension
100
AcDbBlockBegin
  2
*Dimension
 70
   1
 10
0
 20
0
 30
0
  3
*Dimension
  1
 
  0
LINE
  5
A4D
330
A4B
100
AcDbEntity
  8
Dimension
100
AcDbLine
 10
142.865
 20
210.626
 30
0
 11
142.865
 21
119.168
 31
0
  0
LINE
  5
A4E
330
A4B
100
AcDbEntity
  8
Dimension
100
AcDbLine
 10
277.135
 20
210.626
 30
0
 11
277.135
 21
119.168
 31
0
  0
LINE
  5
A4F
330
A4B
100
AcDbEntity
  8
Dimension
100
AcDbLine
 10
277.135
 20
119.168
 30
0
 11
142.865
 21
119.168
 31
0
  0
TEXT
  5
A50
330
A4B
100
AcDbEntity
  8
Dimension
100
AcDbText
 10
208.878
 20
114.168
 30
0
 40
3.5
  1
 mm
  7
STANDARD
 72
1
 11
208.878
 21
119.168
 31
0
100
AcDbText
  0
SOLID
  5
A51
330
A4B
100
AcDbEntity
  8
0
 62
     0
100
AcDbTrace
 10
282.135
 20
118.751
 30
0
 11
282.135
 21
119.585
 31
0
 12
277.135
 22
119.168
 32
0
 13
277.135
 23
119.168
 33
0
  0
SOLID
  5
A52
330
A4B
100
AcDbEntity
  8
0
 62
     0
100
AcDbTrace
 10
137.865
 20
118.751
 30
0
 11
137.865
 21
119.585
 31
0
 12
142.865
 22
119.168
 32
0
 13
142.865
 23
119.168
 33
0
  0
ENDBLK
  5
A53
330
A4B
100
AcDbEntity
  8
Dimension
100
AcDbBlockEnd
  0
BLOCK
  5
A56
330
A55
100
AcDbEntity
  8
Dimension001
100
AcDbBlockBegin
  2
*Dimension001
 70
   1
 10
0
 20
0
 30
0
  3
*Dimension001
  1
 
  0
LINE
  5
A57
330
A55
100
AcDbEntity
  8
Dimension001
100
AcDbLine
 10
210
 20
56.1094
 30
0
 11
96.1103
 21
56.1094
 31
0
  0
LINE
  5
A58
330
A55
100
AcDbEntity
  8
Dimension001
100
AcDbLine
 10
210
 20
240.891
 30
0
 11
96.1103
 21
240.891
 31
0
  0
LINE
  5
A59
330
A55
100
AcDbEntity
  8
Dimension001
100
AcDbLine
 10
96.1103
 20
240.891
 30
0
 11
96.1103
 21
56.1094
 31
0
  0
TEXT
  5
A5A
330
A55
100
AcDbEntity
  8
Dimension001
100
AcDbText
 10
91.1103
 20
150.369
 30
0
 40
3.5
  1
 mm
  7
STANDARD
 72
1
 11
96.1103
 21
150.369
 31
0
100
AcDbText
  0
SOLID
  5
A5B
330
A55
100
AcDbEntity
  8
0
 62
     0
100
AcDbTrace
 10
95.6936
 20
245.891
 30
0
 11
96.5269
 21
245.891
 31
0
 12
96.1103
 22
240.891
 32
0
 13
96.1103
 23
240.891
 33
0
  0
SOLID
  5
A5C
330
A55
100
AcDbEntity
  8
0
 62
     0
100
AcDbTrace
 10
95.6936
 20
51.1094
 30
0
 11
96.5269
 21
51.1094
 31
0
 12
96.1103
 22
56.1094
 32
0
 13
96.1103
 23
56.1094
 33
0
  0
ENDBLK
  5
A5D
330
A55
100
AcDbEntity
  8
Dimension001
100
AcDbBlockEnd
  0
BLOCK
  5
A60
330
A5F
100
AcDbEntity
  8
Dimension002
100
AcDbBlockBegin
  2
*Dimension002
 70
   1
 10
0
 20
0
 30
0
  3
*Dimension002
  1
 
  0
LINE
  5
A61
330
A5F
100
AcDbEntity
  8
Dimension002
100
AcDbLine
 10
256.813
 20
68.283
 30
0
 11
256.813
 21
34.1214
 31
0
  0
LINE
  5
A62
330
A5F
100
AcDbEntity
  8
Dimension002
100
AcDbLine
 10
163.187
 20
68.283
 30
0
 11
163.187
 21
34.1214
 31
0
  0
LINE
  5
A63
330
A5F
100
AcDbEntity
  8
Dimension002
100
AcDbLine
 10
163.187
 20
34.1214
 30
0
 11
256.813
 21
34.1214
 31
0
  0
TEXT
  5
A64
330
A5F
100
AcDbEntity
  8
Dimension002
100
AcDbText
 10
204.766
 20
39.1214
 30
0
 40
3.5
  1
 mm
  7
STANDARD
 72
1
 11
204.766
 21
34.1214
 31
0
100
AcDbText
  0
SOLID
  5
A65
330
A5F
100
AcDbEntity
  8
0
 62
     0
100
AcDbTrace
 10
158.187
 20
33.7047
 30
0
 11
158.187
 21
34.538
 31
0
 12
163.187
 22
34.1214
 32
0
 13
163.187
 23
34.1214
 33
0
  0
SOLID
  5
A66
330
A5F
100
AcDbEntity
  8
0
 62
     0
100
AcDbTrace
 10
261.813
 20
33.7047
 30
0
 11
261.813
 21
34.538
 31
0
 12
256.813
 22
34.1214
 32
0
 13
256.813
 23
34.1214
 33
0
  0
ENDBLK
  5
A67
330
A5F
100
AcDbEntity
  8
Dimension002
100
AcDbBlockEnd
  0
ENDSEC
  0
SECTION
  2
ENTITIES
  0
ARC
  5
A08
330
A02
100
AcDbEntity
  8
ProjItem
100
AcDbCircle
 10
210.267
 20
228.753
 30
0
 40
12.1403
100
AcDbArc
 50
91.2589
 51
-134.104
  0
ARC
  5
A09
330
A02
100
AcDbEntity
  8
ProjItem
100
AcDbCircle
 10
209.733
 20
228.753
 30
0
 40
12.1403
100
AcDbArc
 50
-45.8955
 51
88.7411
  0
ARC
  5
A0A
330
A02
100
AcDbEntity
  8
ProjItem
100
AcDbCircle
 10
207.513
 20
205.479
 30
0
 40
15.6314
100
AcDbArc
 50
111.368
 51
-150.067
  0
ARC
  5
A0B
330
A02
100
AcDbEntity
  8
ProjItem
100
AcDbCircle
 10
212.487
 20
205.479
 30
0
 40
15.6314
100
AcDbArc
 50
-29.9326
 51
68.6325
  0
ARC
  5
A0C
330
A02
100
AcDbEntity
  8
ProjItem
100
AcDbCircle
 10
217.913
 20
210.228
 30
0
 40
27.0351
100
AcDbArc
 50
-152.344
 51
-119.301
  0
LINE
  5
A0D
330
A02
100
AcDbEntity
  8
ProjItem
100
AcDbLine
 10
204.682
 20
186.651
 30
0
 11
204.835
 21
183.6
 31
0
  0
LINE
  5
A0E
330
A02
100
AcDbEntity
  8
ProjItem
100
AcDbLine
 10
204.835
 20
183.6
 30
0
 11
199.94
 21
173.949
 31
0
  0
LINE
  5
A0F
330
A02
100
AcDbEntity
  8
ProjItem
100
AcDbLine
 10
199.94
 20
173.949
 30
0
 11
166.5
 21
195.742
 31
0
  0
LINE
  5
A10
330
A02
100
AcDbEntity
  8
ProjItem
100
AcDbLine
 10
166.5
 20
195.742
 30
0
 11
155.45
 21
202.971
 31
0
  0
LINE
  5
A11
330
A02
100
AcDbEntity
  8
ProjItem
100
AcDbLine
 10
155.45
 20
202.971
 30
0
 11
142.865
 21
210.626
 31
0
  0
ARC
  5
A12
330
A02
100
AcDbEntity
  8
ProjItem
100
AcDbCircle
 10
139.414
 20
206.543
 30
0
 40
5.34542
100
AcDbArc
 50
49.8013
 51
-110.651
  0
ARC
  5
A13
330
A02
100
AcDbEntity
  8
ProjItem
100
AcDbCircle
 10
123.878
 20
181.528
 30
0
 40
24.2258
100
AcDbArc
 50
-16.3726
 51
55.7005
  0
ARC
  5
A14
330
A02
100
AcDbEntity
  8
ProjItem
100
AcDbCircle
 10
152.551
 20
174.605
 30
0
 40
5.43136
100
AcDbArc
 50
179.003
 51
-104.615
  0
LINE
  5
A15
330
A02
100
AcDbEntity
  8
ProjItem
100
AcDbLine
 10
151.181
 20
169.349
 30
0
 11
156.294
 21
166.374
 31
0
  0
ARC
  5
A16
330
A02
100
AcDbEntity
  8
ProjItem
100
AcDbCircle
 10
152.981
 20
159.117
 30
0
 40
7.9776
100
AcDbArc
 50
-2.34423
 51
65.4574
  0
LINE
  5
A17
330
A02
100
AcDbEntity
  8
ProjItem
100
AcDbLine
 10
160.951
 20
158.791
 30
0
 11
161.512
 21
156.152
 31
0
  0
ARC
  5
A18
330
A02
100
AcDbEntity
  8
ProjItem
100
AcDbCircle
 10
192.194
 20
167.979
 30
0
 40
32.8832
100
AcDbArc
 50
-158.919
 51
-131.567
  0
ARC
  5
A19
330
A02
100
AcDbEntity
  8
ProjItem
100
AcDbCircle
 10
179.397
 20
157.822
 30
0
 40
17.0305
100
AcDbArc
 50
-121.982
 51
-68.4693
  0
LINE
  5
A1A
330
A02
100
AcDbEntity
  8
ProjItem
100
AcDbLine
 10
185.647
 20
141.98
 30
0
 11
182.422
 21
135.66
 31
0
  0
LINE
  5
A1B
330
A02
100
AcDbEntity
  8
ProjItem
100
AcDbLine
 10
182.422
 20
135.66
 30
0
 11
177.431
 21
124.406
 31
0
  0
LINE
  5
A1C
330
A02
100
AcDbEntity
  8
ProjItem
100
AcDbLine
 10
177.431
 20
124.406
 30
0
 11
174.144
 21
115.153
 31
0
  0
LINE
  5
A1D
330
A02
100
AcDbEntity
  8
ProjItem
100
AcDbLine
 10
174.144
 20
115.153
 30
0
 11
171.344
 21
105.901
 31
0
  0
LINE
  5
A1E
330
A02
100
AcDbEntity
  8
ProjItem
100
AcDbLine
 10
171.344
 20
105.901
 30
0
 11
168.544
 21
96.4051
 31
0
  0
LINE
  5
A1F
330
A02
100
AcDbEntity
  8
ProjItem
100
AcDbLine
 10
168.544
 20
96.4051
 30
0
 11
165.987
 21
86.7876
 31
0
  0
LINE
  5
A20
330
A02
100
AcDbEntity
  8
ProjItem
100
AcDbLine
 10
165.987
 20
86.7876
 30
0
 11
164.77
 21
80.0919
 31
0
  0
LINE
  5
A21
330
A02
100
AcDbEntity
  8
ProjItem
100
AcDbLine
 10
164.77
 20
80.0919
 30
0
 11
163.187
 21
70.7178
 31
0
  0
LINE
  5
A22
330
A02
100
AcDbEntity
  8
ProjItem
100
AcDbLine
 10
163.187
 20
70.7178
 30
0
 11
163.187
 21
68.283
 31
0
  0
LINE
  5
A23
330
A02
100
AcDbEntity
  8
ProjItem
100
AcDbLine
 10
163.187
 20
68.283
 30
0
 11
165.135
 21
66.3351
 31
0
  0
LINE
  5
A24
330
A02
100
AcDbEntity
  8
ProjItem
100
AcDbLine
 10
165.135
 20
66.3351
 30
0
 11
168.18
 21
63.9857
 31
0
  0
LINE
  5
A25
330
A02
100
AcDbEntity
  8
ProjItem
100
AcDbLine
 10
168.18
 20
63.9857
 30
0
 11
173.414
 21
61.4292
 31
0
  0
LINE
  5
A26
330
A02
100
AcDbEntity
  8
ProjItem
100
AcDbLine
 10
173.414
 20
61.4292
 30
0
 11
179.988
 21
59.4813
 31
0
  0
LINE
  5
A27
330
A02
100
AcDbEntity
  8
ProjItem
100
AcDbLine
 10
179.988
 20
59.4813
 30
0
 11
186.197
 21
58.1422
 31
0
  0
LINE
  5
A28
330
A02
100
AcDbEntity
  8
ProjItem
100
AcDbLine
 10
186.197
 20
58.1422
 30
0
 11
193.867
 21
57.1682
 31
0
  0
LINE
  5
A29
330
A02
100
AcDbEntity
  8
ProjItem
100
AcDbLine
 10
193.867
 20
57.1682
 30
0
 11
210
 21
56.1094
 31
0
  0
ARC
  5
A2A
330
A02
100
AcDbEntity
  8
ProjItem
100
AcDbCircle
 10
202.087
 20
210.228
 30
0
 40
27.0351
100
AcDbArc
 50
-60.6987
 51
-27.6558
  0
LINE
  5
A2B
330
A02
100
AcDbEntity
  8
ProjItem
100
AcDbLine
 10
215.318
 20
186.651
 30
0
 11
215.165
 21
183.6
 31
0
  0
LINE
  5
A2C
330
A02
100
AcDbEntity
  8
ProjItem
100
AcDbLine
 10
215.165
 20
183.6
 30
0
 11
220.06
 21
173.949
 31
0
  0
LINE
  5
A2D
330
A02
100
AcDbEntity
  8
ProjItem
100
AcDbLine
 10
220.06
 20
173.949
 30
0
 11
253.5
 21
195.742
 31
0
  0
LINE
  5
A2E
330
A02
100
AcDbEntity
  8
ProjItem
100
AcDbLine
 10
253.5
 20
195.742
 30
0
 11
264.55
 21
202.971
 31
0
  0
LINE
  5
A2F
330
A02
100
AcDbEntity
  8
ProjItem
100
AcDbLine
 10
264.55
 20
202.971
 30
0
 11
277.135
 21
210.626
 31
0
  0
ARC
  5
A30
330
A02
100
AcDbEntity
  8
ProjItem
100
AcDbCircle
 10
280.586
 20
206.543
 30
0
 40
5.34542
100
AcDbArc
 50
-69.3491
 51
130.199
  0
ARC
  5
A31
330
A02
100
AcDbEntity
  8
ProjItem
100
AcDbCircle
 10
296.122
 20
181.528
 30
0
 40
24.2258
100
AcDbArc
 50
124.3
 51
-163.627
  0
ARC
  5
A32
330
A02
100
AcDbEntity
  8
ProjItem
100
AcDbCircle
 10
267.449
 20
174.605
 30
0
 40
5.43136
100
AcDbArc
 50
-75.3854
 51
0.996947
  0
LINE
  5
A33
330
A02
100
AcDbEntity
  8
ProjItem
100
AcDbLine
 10
268.819
 20
169.349
 30
0
 11
263.706
 21
166.374
 31
0
  0
ARC
  5
A34
330
A02
100
AcDbEntity
  8
ProjItem
100
AcDbCircle
 10
267.019
 20
159.117
 30
0
 40
7.9776
100
AcDbArc
 50
114.543
 51
-177.656
  0
LINE
  5
A35
330
A02
100
AcDbEntity
  8
ProjItem
100
AcDbLine
 10
259.049
 20
158.791
 30
0
 11
258.488
 21
156.152
 31
0
  0
ARC
  5
A36
330
A02
100
AcDbEntity
  8
ProjItem
100
AcDbCircle
 10
227.806
 20
167.979
 30
0
 40
32.8832
100
AcDbArc
 50
-48.4327
 51
-21.0807
  0
ARC
  5
A37
330
A02
100
AcDbEntity
  8
ProjItem
100
AcDbCircle
 10
240.603
 20
157.822
 30
0
 40
17.0305
100
AcDbArc
 50
-111.531
 51
-58.0181
  0
LINE
  5
A38
330
A02
100
AcDbEntity
  8
ProjItem
100
AcDbLine
 10
234.353
 20
141.98
 30
0
 11
237.578
 21
135.66
 31
0
  0
LINE
  5
A39
330
A02
100
AcDbEntity
  8
ProjItem
100
AcDbLine
 10
237.578
 20
135.66
 30
0
 11
242.569
 21
124.406
 31
0
  0
LINE
  5
A3A
330
A02
100
AcDbEntity
  8
ProjItem
100
AcDbLine
 10
242.569
 20
124.406
 30
0
 11
245.856
 21
115.153
 31
0
  0
LINE
  5
A3B
330
A02
100
AcDbEntity
  8
ProjItem
100
AcDbLine
 10
245.856
 20
115.153
 30
0
 11
248.656
 21
105.901
 31
0
  0
LINE
  5
A3C
330
A02
100
AcDbEntity
  8
ProjItem
100
AcDbLine
 10
248.656
 20
105.901
 30
0
 11
251.456
 21
96.4051
 31
0
  0
LINE
  5
A3D
330
A02
100
AcDbEntity
  8
ProjItem
100
AcDbLine
 10
251.456
 20
96.4051
 30
0
 11
254.013
 21
86.7876
 31
0
  0
LINE
  5
A3E
330
A02
100
AcDbEntity
  8
ProjItem
100
AcDbLine
 10
254.013
 20
86.7876
 30
0
 11
255.23
 21
80.0919
 31
0
  0
LINE
  5
A3F
330
A02
100
AcDbEntity
  8
ProjItem
100
AcDbLine
 10
255.23
 20
80.0919
 30
0
 11
256.813
 21
70.7178
 31
0
  0
LINE
  5
A40
330
A02
100
AcDbEntity
  8
ProjItem
100
AcDbLine
 10
256.813
 20
70.7178
 30
0
 11
256.813
 21
68.283
 31
0
  0
LINE
  5
A41
330
A02
100
AcDbEntity
  8
ProjItem
100
AcDbLine
 10
256.813
 20
68.283
 30
0
 11
254.865
 21
66.3351
 31
0
  0
LINE
  5
A42
330
A02
100
AcDbEntity
  8
ProjItem
100
AcDbLine
 10
254.865
 20
66.3351
 30
0
 11
251.82
 21
63.9857
 31
0
  0
LINE
  5
A43
330
A02
100
AcDbEntity
  8
ProjItem
100
AcDbLine
 10
251.82
 20
63.9857
 30
0
 11
246.586
 21
61.4292
 31
0
  0
LINE
  5
A44
330
A02
100
AcDbEntity
  8
ProjItem
100
AcDbLine
 10
246.586
 20
61.4292
 30
0
 11
240.012
 21
59.4813
 31
0
  0
LINE
  5
A45
330
A02
100
AcDbEntity
  8
ProjItem
100
AcDbLine
 10
240.012
 20
59.4813
 30
0
 11
233.803
 21
58.1422
 31
0
  0
LINE
  5
A46
330
A02
100
AcDbEntity
  8
ProjItem
100
AcDbLine
 10
233.803
 20
58.1422
 30
0
 11
226.133
 21
57.1682
 31
0
  0
LINE
  5
A47
330
A02
100
AcDbEntity
  8
ProjItem
100
AcDbLine
 10
226.133
 20
57.1682
 30
0
 11
210
 21
56.1094
 31
0
  0
ARC
  5
A48
330
A02
100
AcDbEntity
  8
ProjItem
100
AcDbCircle
 10
210.033
 20
228.711
 30
0
 40
6.78106
100
AcDbArc
 50
90.2813
 51
-90.2813
  0
ARC
  5
A49
330
A02
100
AcDbEntity
  8
ProjItem
100
AcDbCircle
 10
209.967
 20
228.711
 30
0
 40
6.78106
100
AcDbArc
 50
-89.7187
 51
89.7187
  0
DIMENSION
  5
A4A
330
A02
100
AcDbEntity
  8
Dimension
100
AcDbDimension
  2
*Dimension
 10
208.878
 20
119.168
 30
0
 11
208.878
 21
114.168
 31
0
 70
32
  1
 mm
  3
STANDARD
100
AcDbAlignedDimension
 13
277.135
 23
210.626
 33
0
 14
142.865
 24
210.626
 34
0
100
AcDbRotatedDimension
  0
DIMENSION
  5
A54
330
A02
100
AcDbEntity
  8
Dimension001
100
AcDbDimension
  2
*Dimension001
 10
96.1103
 20
150.369
 30
0
 11
91.1103
 21
150.369
 31
0
 70
32
  1
 mm
  3
STANDARD
100
AcDbAlignedDimension
 13
210
 23
240.891
 33
0
 14
210
 24
56.1094
 34
0
 50
90
100
AcDbRotatedDimension
  0
DIMENSION
  5
A5E
330
A02
100
AcDbEntity
  8
Dimension002
100
AcDbDimension
  2
*Dimension002
 10
204.766
 20
34.1214
 30
0
 11
204.766
 21
39.1214
 31
0
 70
32
  1
 mm
  3
STANDARD
100
AcDbAlignedDimension
 13
163.187
 23
68.283
 33
0
 14
256.813
 24
68.283
 34
0
100
AcDbRotatedDimension
  0
ENDSEC
  0
SECTION
  2
OBJECTS
  0
DICTIONARY
  5
F000
330
0
100
AcDbDictionary
  3
ACAD_GROUP
350
F001
  0
DICTIONARY
  5
F001
330
F000
100
AcDbDictionary
  0
ENDSEC
  0
EOF